<svg xmlns="http://www.w3.org/2000/svg" xmlns:xlink="http://www.w3.org/1999/xlink" viewBox="0 0 1080 1080"><defs><style>.cls-1{fill:#99adf9;}.cls-2,.cls-7{fill:#fff;}.cls-3{isolation:isolate;}.cls-13,.cls-4,.cls-8{fill:#ff97c9;}.cls-4{opacity:0.27;}.cls-5{fill:#738de0;}.cls-6{clip-path:url(#clip-path);}.cls-7{opacity:0.42;mix-blend-mode:soft-light;}.cls-9{clip-path:url(#clip-path-2);}.cls-10{fill:#1c3177;}.cls-11{fill:#f0f4ff;}.cls-12{fill:#fec272;}.cls-13{mix-blend-mode:multiply;}</style><clipPath id="clip-path"><path class="cls-1" d="M823,232.1c0,38.78-112.64,70.21-279.1,70.21S267.19,270.88,267.19,232.1s110.19-70.2,276.66-70.2S823,193.33,823,232.1Z"/></clipPath><clipPath id="clip-path-2"><path class="cls-2" d="M433,616.68c-11.56,26-14,77.52-15.71,80.94s-13.62,9.61-10.58,15.88c2.8,5.76,22.21,13.61,28,12,9-2.44,17.89-26.44,23.36-41.64,20,12,53.44,16.06,53.44,16.06s-3.39,24.94-6,30.4-11.74,12.13-9.86,18.79,19.9,10.42,27.9,11.45,20.95-42.88,23.94-58.25c53.21,5.63,117.44,1.54,117.44,1.54s7.69,26.81.17,38.77c-3.43,5.46-5.61,17-3.76,17.77,11.45,4.61,26.21,2,30.92-1.37,5.3-3.76,23.92-90.28,12.64-122.94s-33.56-51.38-72.77-61.28-98.39-10.36-98.39-10.36Z"/></clipPath></defs><g class="cls-3"><g id="Layer_2" data-name="Layer 2"><path class="cls-4" d="M438.68,221.85,215.85,835.92a37,37,0,0,0,20.51,46.78c51.68,21.69,162.56,59.41,308.71,59.41s257-37.72,308.72-59.41a37,37,0,0,0,20.5-46.78L651.46,221.85Z"/><circle class="cls-5" cx="309.98" cy="272.33" r="20.75"/><circle class="cls-5" cx="780.16" cy="272.33" r="20.75"/><circle class="cls-5" cx="545.07" cy="306.41" r="20.75"/><path class="cls-1" d="M823,232.1c0,38.78-112.64,70.21-279.1,70.21S267.19,270.88,267.19,232.1s110.19-70.2,276.66-70.2S823,193.33,823,232.1Z"/><g class="cls-6"><path class="cls-7" d="M823,206.48c0,38.77-112.64,70.21-279.1,70.21s-276.66-31.44-276.66-70.21,110.19-70.21,276.66-70.21S823,167.71,823,206.48Z"/></g><path class="cls-1" d="M545.35,230.05c47.56,0,92.26-5.72,131.17-15.78C668.05,152.1,610.16,104,540,104c-69.1,0-126.3,46.67-136.1,107.49C445.14,223.27,493.56,230.05,545.35,230.05Z"/><path class="cls-8" d="M652.88,706.57c1.07-10.31-8.74-15.32-25.48-16.51s-26.87,2.38-27.94,12.69a15.36,15.36,0,0,0,2.48,10.14,3.56,3.56,0,0,1,0,3.82c-1.58,2.56-2.81,5.2-1.91,6.21,1.3,1.46,4.37.18,7.9-2.23a3.51,3.51,0,0,1,3.42-.29,34.21,34.21,0,0,0,7.32,2.21,3.59,3.59,0,0,1,2.87,2.76c.6,3,1.79,6,4.16,6.2,3,.28,4.55-2.14,5.14-5.69a3.56,3.56,0,0,1,2.94-3,33.42,33.42,0,0,0,3.82-.83A3.54,3.54,0,0,1,641,723c2.86,2.79,5.51,4.28,7.06,3,1-.85.39-3.5-.58-6a3.61,3.61,0,0,1,.74-3.84A15.8,15.8,0,0,0,652.88,706.57Z"/><path class="cls-2" d="M433,616.68c-11.56,26-14,77.52-15.71,80.94s-13.62,9.61-10.58,15.88c2.8,5.76,22.21,13.61,28,12,9-2.44,17.89-26.44,23.36-41.64,20,12,53.44,16.06,53.44,16.06s-3.39,24.94-6,30.4-11.74,12.13-9.86,18.79,19.9,10.42,27.9,11.45,20.95-42.88,23.94-58.25c53.21,5.63,117.44,1.54,117.44,1.54s7.69,26.81.17,38.77c-3.43,5.46-5.61,17-3.76,17.77,11.45,4.61,26.21,2,30.92-1.37,5.3-3.76,23.92-90.28,12.64-122.94s-33.56-51.38-72.77-61.28-98.39-10.36-98.39-10.36Z"/><g class="cls-9"><path class="cls-10" d="M623.35,564.49s-9,34.16,9.23,52.19,55.55,15.73,75.81-7.85C689,573.48,623.35,564.49,623.35,564.49Z"/><path class="cls-10" d="M410.17,661.87s34.46,12.43,43.56,45.61C433.23,739.9,401.51,730,401.51,730"/><path class="cls-10" d="M664.52,628.59c10.59,0,18.28,3.56,22.89,10.35,3.51,5.17,13.83,17.72,25.36,10.81,15.09-9-8.11-40.32-8.11-40.32l-28.87-2.22Z"/></g><path class="cls-11" d="M430.1,624.52s17,39.21,59.67,39.18c37.38,0,61-42.82,49.65-72.48C502.75,606.14,430.1,624.52,430.1,624.52Z"/><path class="cls-12" d="M421.19,507.88s-10.38-24.21-3.85-34.34S445,499.17,445,499.17Z"/><path class="cls-12" d="M533.42,507.88s10.37-24.21,3.84-34.34-27.67,25.63-27.67,25.63Z"/><path class="cls-2" d="M547.17,569.15c-3.31,38.55-16.23,71.75-78.23,66.42s-70.12-40.34-66.81-78.88,38.47-67,78.52-63.57S550.48,530.6,547.17,569.15Z"/><path class="cls-2" d="M462.5,493.74s-80.9,7-89.74,35.15c-5.81,18.54,24.13,17.55,43.46-2.15C420.12,519.19,462.5,493.74,462.5,493.74Z"/><path class="cls-10" d="M486.25,493.74s80.89,7,89.73,35.15c5.82,18.54-24.12,17.55-43.46-2.15C528.62,519.19,486.25,493.74,486.25,493.74Z"/><circle class="cls-10" cx="427.67" cy="566.85" r="9.64"/><circle class="cls-10" cx="520.8" cy="574.85" r="9.64"/><path class="cls-8" d="M506.4,596.75c-1.07,12.48-14.68,21.49-35.49,19.71s-32-12.94-30.9-25.42,13.56-16.61,34.36-14.82S507.48,584.27,506.4,596.75Z"/><ellipse class="cls-13" cx="456.48" cy="588.36" rx="4.68" ry="4.89" transform="translate(-168.8 992.78) rotate(-85.09)"/><ellipse class="cls-13" cx="489.77" cy="591.22" rx="4.68" ry="4.89" transform="translate(-141.21 1028.57) rotate(-85.09)"/><path class="cls-10" d="M481.92,493.25S467.91,519,499.68,538c23.77,14.2,44.35,4.15,44.35,4.15S535.28,497.37,481.92,493.25Z"/><path class="cls-10" d="M623,636.13c9.82,1,15.54,21.2,7.17,27.57s-22.37-4.56-23.23-13.78S610.54,634.82,623,636.13Z"/><path class="cls-10" d="M515.74,649.4c3.44-10.33,27-8.19,37.58,1.38s15.88,29.54,10.59,33.3-16.23-8.28-26-11.79S512.4,659.4,515.74,649.4Z"/><ellipse class="cls-7" cx="565.83" cy="149.85" rx="23.32" ry="53.46" transform="translate(282.08 661.82) rotate(-75.84)"/><rect class="cls-12" x="788.12" y="352.15" width="25.58" height="172.82" rx="12.79" transform="translate(-105.83 330.81) rotate(-21.93)"/><rect class="cls-12" x="192.86" y="651.38" width="25.58" height="100.6" rx="12.79" transform="translate(283.09 -25.4) rotate(22.41)"/></g></g></svg>